<svg width="30" height="31" viewBox="0 0 30 31" fill="none" xmlns="http://www.w3.org/2000/svg">
<path d="M2.50962 8.28867L15 1.07735L27.4904 8.28867V22.7113L15 29.9227L2.50962 22.7113V8.28867Z" stroke="#9F6B08"/>
<path d="M9.64645 15.1464C9.45118 15.3417 9.45118 15.6583 9.64645 15.8536L12.8284 19.0355C13.0237 19.2308 13.3403 19.2308 13.5355 19.0355C13.7308 18.8403 13.7308 18.5237 13.5355 18.3284L10.7071 15.5L13.5355 12.6716C13.7308 12.4763 13.7308 12.1597 13.5355 11.9645C13.3403 11.7692 13.0237 11.7692 12.8284 11.9645L9.64645 15.1464ZM20 15L10 15V16L20 16V15Z" fill="#9F6B08"/>
</svg>
