<svg width="30" height="31" viewBox="0 0 30 31" fill="none" xmlns="http://www.w3.org/2000/svg">
<path d="M2.50962 8.28867L15 1.07735L27.4904 8.28867V22.7113L15 29.9227L2.50962 22.7113V8.28867Z" stroke="#9F6B08"/>
<path d="M20.3536 15.8536C20.5488 15.6583 20.5488 15.3417 20.3536 15.1464L17.1716 11.9645C16.9763 11.7692 16.6597 11.7692 16.4645 11.9645C16.2692 12.1597 16.2692 12.4763 16.4645 12.6716L19.2929 15.5L16.4645 18.3284C16.2692 18.5237 16.2692 18.8403 16.4645 19.0355C16.6597 19.2308 16.9763 19.2308 17.1716 19.0355L20.3536 15.8536ZM10 16H20V15H10V16Z" fill="#9F6B08"/>
</svg>
